<svg width="80" height="80" viewBox="0 0 80 80" fill="none" xmlns="http://www.w3.org/2000/svg">
<path d="M55 31.3333L25 14.0333M10.9 23.2L40 40.0333L69.1 23.2M40 73.6V40M70 53.3333V26.6667C69.9988 25.4976 69.6902 24.3494 69.1051 23.3372C68.5201 22.325 67.6791 21.4845 66.6667 20.9L43.3333 7.56666C42.3199 6.98154 41.1702 6.6735 40 6.6735C38.8298 6.6735 37.6801 6.98154 36.6667 7.56666L13.3333 20.9C12.3209 21.4845 11.4799 22.325 10.8949 23.3372C10.3098 24.3494 10.0012 25.4976 10 26.6667V53.3333C10.0012 54.5024 10.3098 55.6506 10.8949 56.6628C11.4799 57.6749 12.3209 58.5155 13.3333 59.1L36.6667 72.4333C37.6801 73.0185 38.8298 73.3265 40 73.3265C41.1702 73.3265 42.3199 73.0185 43.3333 72.4333L66.6667 59.1C67.6791 58.5155 68.5201 57.6749 69.1051 56.6628C69.6902 55.6506 69.9988 54.5024 70 53.3333Z" stroke="#1E1E1E" stroke-width="4" stroke-linecap="round" stroke-linejoin="round"/>
</svg>
